<svg xmlns="http://www.w3.org/2000/svg" width="48" height="38"><path fill="#00a0c1" d="M29.14 8.62h11.998v3.445H29.14zm0 8.62h11.998v3.445H29.14zm0 8.61h11.998v3.445H29.14z"/><path fill="#00a0c1" d="M44.563.01c.91 0 1.78.364 2.423 1.01a3.457 3.457 0 011.005 2.435v31.008a3.459 3.459 0 01-1.005 2.435 3.425 3.425 0 01-2.422 1.01H3.427c-.909 0-1.78-.364-2.423-1.01A3.458 3.458 0 010 34.463V3.455c0-.913.362-1.789 1.005-2.435A3.423 3.423 0 013.428.01zM3.428 34.463h18.854V3.455H3.428zm41.139 0l-.004-31.008H25.71v31.008z"/></svg>