<svg xmlns="http://www.w3.org/2000/svg" width="36" height="48"><path fill="#00a0c1" d="M13.882 36c1.16 0 2.284-.331 3.295-.897L12.32 47.067a1.49 1.49 0 01-2.467.465L6.47 43.943l-4.918.189a1.5 1.5 0 01-1.44-2.066l4.235-10.428c.705.55 1.486 1.01 2.373 1.248 1.956.526 1.534.297 2.345 1.111a6.754 6.754 0 004.817 2.004zm21.846 6.066c.41 1.01-.355 2.107-1.44 2.066l-4.918-.189-3.383 3.589a1.49 1.49 0 01-2.467-.465l-4.858-11.964c1.012.565 2.135.898 3.296.898 1.82 0 3.53-.712 4.818-2.004.809-.812.378-.582 2.344-1.11.888-.24 1.668-.698 2.374-1.25zm-15.823-9.645a3.691 3.691 0 00-3.97 0 3.697 3.697 0 01-4.642-.545c-1.374-1.407-1.53-1.317-3.619-1.888a3.802 3.802 0 01-2.657-2.717c-.698-2.663-.517-2.341-2.422-4.29a3.903 3.903 0 01-.973-3.71c.698-2.665.698-2.294 0-4.953a3.899 3.899 0 01.973-3.71C4.5 8.659 4.32 8.98 5.017 6.318a3.802 3.802 0 012.657-2.716c2.603-.714 2.29-.528 4.194-2.476a3.7 3.7 0 013.63-.995c2.606.714 2.243.713 4.844 0a3.703 3.703 0 013.63.995c1.907 1.949 1.593 1.762 4.195 2.476a3.802 3.802 0 012.657 2.717c.699 2.661.517 2.34 2.422 4.289.95.97 1.32 2.385.973 3.71-.698 2.664-.697 2.292 0 4.953a3.901 3.901 0 01-.973 3.71c-1.905 1.949-1.723 1.627-2.422 4.29a3.802 3.802 0 01-2.657 2.717c-2.03.556-2.194.43-3.62 1.888a3.696 3.696 0 01-4.642.545zM17.92 25.5c4.863 0 8.805-4.03 8.805-9.002s-3.942-9.002-8.805-9.002c-4.863 0-8.805 4.03-8.805 9.002S13.058 25.5 17.92 25.5z"/></svg>