<svg xmlns="http://www.w3.org/2000/svg" width="48" height="27"><path fill="#00a0c1" d="M43.148 12.277a4.712 4.712 0 00-1.683.324l-5.74-4.784a6.214 6.214 0 00.242-1.633C35.967 2.805 33.3.09 29.982.09c-3.317 0-5.984 2.715-5.984 6.094 0 .965.24 1.864.627 2.673l-6.963 8.38a4.855 4.855 0 00-.845-.085c-.429 0-.834.073-1.226.18l-6.135-6.247c.107-.397.18-.809.18-1.245 0-2.7-2.136-4.875-4.788-4.875C2.195 4.965.06 7.139.06 9.84c0 2.7 2.135 4.875 4.788 4.875a4.62 4.62 0 001.225-.18l6.135 6.247a4.728 4.728 0 00-.18 1.245c0 2.7 2.136 4.875 4.788 4.875 2.653 0 4.788-2.174 4.788-4.875a4.94 4.94 0 00-.294-1.635l6.973-8.39c.543.16 1.106.275 1.7.275a5.85 5.85 0 002.711-.685l5.743 4.785c-.045.256-.07.515-.076.775 0 2.7 2.135 4.875 4.787 4.875s4.788-2.174 4.788-4.875c0-2.7-2.136-4.875-4.788-4.875z"/></svg>