<svg xmlns="http://www.w3.org/2000/svg" width="25" height="24"><path fill="#e51f5a" d="M18.652 12.002a6.144 6.144 0 01-6.153 6.153 6.144 6.144 0 01-6.153-6.153 6.144 6.144 0 016.153-6.153 6.144 6.144 0 016.153 6.153zm-2.154 0a4.007 4.007 0 00-4-4 4.007 4.007 0 00-3.998 4A4.007 4.007 0 0012.499 16a4.007 4.007 0 003.999-4zm2.406-7.84A1.435 1.435 0 0120.34 5.6c0 .798-.642 1.437-1.437 1.437A1.435 1.435 0 0117.467 5.6c0-.795.642-1.437 1.437-1.437zm5.51 12.79c-.092 1.92-.527 3.62-1.934 5.028-1.404 1.404-3.108 1.842-5.028 1.935-1.653.093-3.294.078-4.95.078-1.653 0-3.294.015-4.95-.078-1.92-.093-3.621-.528-5.028-1.935C1.12 20.576.682 18.872.589 16.952.496 15.299.51 13.655.51 12.002s-.015-3.294.078-4.95c.093-1.92.528-3.621 1.935-5.028C3.928.62 5.632.182 7.552.089 9.205-.004 10.846.01 12.502.01c1.653 0 3.294-.015 4.95.078 1.92.093 3.62.528 5.028 1.935 1.404 1.404 1.842 3.108 1.935 5.028.093 1.653.078 3.294.078 4.95 0 1.656.018 3.297-.078 4.95zm-2.075-4.95c0-1.75.14-5.5-.483-7.077a3.838 3.838 0 00-.906-1.374 3.812 3.812 0 00-1.374-.906c-1.578-.624-5.328-.483-7.077-.483-1.75 0-5.5-.141-7.077.483a3.878 3.878 0 00-1.374.906c-.423.42-.687.828-.906 1.374-.624 1.578-.483 5.328-.483 7.077 0 1.749-.141 5.496.483 7.077.219.546.483.95.906 1.374.42.423.828.687 1.374.906 1.578.624 5.328.483 7.077.483 1.749 0 5.496.14 7.074-.486a3.838 3.838 0 001.374-.906c.423-.42.687-.828.906-1.374.627-1.578.486-5.325.486-7.074z"/></svg>