<svg xmlns="http://www.w3.org/2000/svg" width="24" height="20"><path fill="#21a6df" d="M23.504 2.468a9.74 9.74 0 01-2.83.772A4.96 4.96 0 0022.837.49a9.613 9.613 0 01-3.118 1.205A4.902 4.902 0 0018.085.529 4.84 4.84 0 0016.128.12c-2.722 0-4.912 2.24-4.912 4.988 0 .386.046.772.121 1.143a13.896 13.896 0 01-10.13-5.219A5.007 5.007 0 00.538 3.55c0 1.73.868 3.257 2.19 4.154A4.901 4.901 0 01.507 7.07v.061c0 2.424 1.688 4.433 3.938 4.895a5.133 5.133 0 01-1.293.17 6.45 6.45 0 01-.928-.077 4.931 4.931 0 004.592 3.459 9.756 9.756 0 01-6.099 2.131c-.412 0-.792-.014-1.187-.061a13.764 13.764 0 007.546 2.237c9.035 0 13.98-7.596 13.98-14.19 0-.216 0-.432-.015-.648a10.67 10.67 0 002.463-2.58z"/></svg>