<svg xmlns="http://www.w3.org/2000/svg" width="25" height="18"><path fill="#e42f08" d="M24.475 9.003a34.163 34.163 0 01-.505 6.069 3.191 3.191 0 01-.775 1.409 2.97 2.97 0 01-1.34.814c-1.867.532-9.367.532-9.367.532s-7.5 0-9.367-.532a2.966 2.966 0 01-1.34-.814 3.192 3.192 0 01-.775-1.41A34.16 34.16 0 01.5 9.004a34.16 34.16 0 01.505-6.068 3.192 3.192 0 01.775-1.41c.37-.39.833-.67 1.34-.814C4.987.18 12.488.18 12.488.18s7.5 0 9.367.531c.507.144.969.425 1.34.815.371.39.639.876.775 1.409.348 2.002.518 4.033.505 6.068zm-8.16 0L10.09 5.222v7.563z"/></svg>